<mxfile host="app.diagrams.net" modified="2023-04-25T07:36:15.533Z" agent="Mozilla/5.0 (Macintosh; Intel Mac OS X 10_15_7) AppleWebKit/537.36 (KHTML, like Gecko) Chrome/112.0.0.0 Safari/537.36" version="21.2.1" etag="70j-Veu16MJ27dkeNx7U" type="github">
  <diagram name="第 1 页" id="mnbAo52HXt2Mq754c5h-">
    <mxGraphModel>
      <root>
        <mxCell id="0" />
        <mxCell id="1" parent="0" />
      </root>
    </mxGraphModel>
  </diagram>
</mxfile>
